<?xml version="1.0" encoding="UTF-8"?><svg id="a" xmlns="http://www.w3.org/2000/svg" width="1022.67" height="1022.74" viewBox="0 0 1022.67 1022.74"><path id="b" d="M480.58,.94c-65.91,3.89-131.47,20.99-190.78,49.52C145.83,119.8,41.95,253.15,10.23,409.39c-22.29,109.54-7.9,224.03,40.56,324.26,69.45,143.74,202.57,247.26,358.57,278.86,109.54,22.29,224.03,7.9,324.26-40.56,103.53-49.99,188.31-134.77,238.3-238.3,23.82-49.29,39.5-101.99,46.46-156.12,12.85-99.05-3.3-199.27-46.46-288.41-49.99-103.53-134.77-188.31-238.3-238.3C655.21,12.85,567.72-4.37,480.58,.94Zm208.59,278.39l-.35,55.77-54.24,.59c-61.31,.71-57.54,0-64.14,10.38-6.72,10.73-7.19,14.39-7.19,58.25v39.85h126.17v104.94h-126.17v313.65h-121.45v-313.65h-108.48v-104.94h108.48v-37.85c0-41.15,1.18-53.89,6.6-72.63,14.86-51.17,54.48-92.33,101.05-104.71,16.98-4.6,24.29-4.95,84.31-5.19l55.65-.12-.24,55.65Z"/></svg>