<?xml version="1.0" encoding="UTF-8"?><svg xmlns="http://www.w3.org/2000/svg" width="3334" height="3334" viewBox="0 0 3334 3334"><g id="a" image-rendering="optimizeQuality" shape-rendering="geometricPrecision" text-rendering="geometricPrecision"><path d="M1667,0c920,0,1667,746,1667,1667s-746,1667-1667,1667S0,2588,0,1667,746,0,1667,0Zm-390,752h780c293,0,532,237,532,525v778c0,289-239,525-532,525h-780c-293,0-532-236-532-525v-778c0-289,240-525,532-525Zm385,421c285,0,516,231,516,516s-231,516-516,516-516-231-516-516,231-516,516-516Zm0,174c188,0,341,153,341,341s-153,341-341,341-341-153-341-341,153-341,341-341Zm499-246c46,0,84,37,84,84s-37,84-84,84-84-37-84-84,37-84,84-84Zm-820-200h652c245,0,445,199,445,443v656c0,244-200,443-445,443h-652c-245,0-445-199-445-443v-656c0-244,200-443,445-443Z" fill-rule="evenodd"/></g></svg>