<?xml version="1.0" encoding="UTF-8"?><svg xmlns="http://www.w3.org/2000/svg" width="3334" height="3334" viewBox="0 0 3334 3334"><g id="a" image-rendering="optimizeQuality" shape-rendering="geometricPrecision" text-rendering="geometricPrecision"><path id="b" d="M1667,0c920,0,1667,746,1667,1667s-746,1667-1667,1667S0,2588,0,1667,746,0,1667,0Zm-215,1336h342v175h5c48-86,164-175,338-175,361,0,428,225,428,517v596h-357v-528c0-126-3-288-186-288s-214,137-214,279v537h-357V1336h1Zm-247-309c0,102-83,186-186,186s-186-83-186-186,83-186,186-186,186,83,186,186Zm-371,309h371v1113h-371V1336Z" fill-rule="evenodd"/></g></svg>