<?xml version="1.0" encoding="UTF-8"?><svg id="a" xmlns="http://www.w3.org/2000/svg" width="800" height="799.97" viewBox="0 0 800 799.97"><path id="b" d="M400.03,0C179.1,0,0,179.08,0,399.95c0,163.82,98.48,304.52,239.45,366.38-1.19-27.95-.26-61.44,6.9-91.82,7.73-32.49,51.52-217.99,51.52-217.99,0,0-12.76-25.54-12.76-63.26,0-59.29,34.35-103.55,77.1-103.55,36.42,0,53.96,27.34,53.96,60.04,0,36.55-23.29,91.29-35.28,141.94-10.01,42.44,21.27,77.06,63.09,77.06,75.8,0,126.86-97.37,126.86-212.67,0-87.65-59.05-153.27-166.45-153.27-121.36,0-196.9,90.47-196.9,191.53,0,34.87,10.22,59.42,26.36,78.44,7.37,8.77,8.41,12.3,5.71,22.31-1.92,7.37-6.28,25.09-8.15,32.09-2.65,10.15-10.84,13.75-20.03,10.04-55.88-22.86-81.87-84-81.87-152.81,0-113.64,95.83-249.86,285.83-249.86,152.74,0,253.3,110.48,253.3,229.11,0,156.91-87.27,274.16-215.89,274.16-43.17,0-83.79-23.38-97.7-49.89,0,0-23.24,92.19-28.12,109.96-8.51,30.82-25.11,61.68-40.27,85.7,35.96,10.61,73.99,16.39,113.37,16.39,220.92,0,399.97-179.08,399.97-400.02,0-220.87-179.05-399.95-399.97-399.95Z"/></svg>