<?xml version="1.0" encoding="UTF-8"?><svg xmlns="http://www.w3.org/2000/svg" width="8192.02" height="8192.02" viewBox="0 0 8192.02 8192.02"><g id="a" image-rendering="optimizeQuality" shape-rendering="geometricPrecision" text-rendering="geometricPrecision"><path id="b" d="M4096.01,0c2262.17,0,4096.01,1833.84,4096.01,4096.01s-1833.84,4096.01-4096.01,4096.01S0,6358.19,0,4096.01,1833.84,0,4096.01,0Zm-927.77,4850.64c-283.88,0-514.57,231.46-514.57,513.57s230.67,512.58,514.57,512.58,515.29-229.05,515.29-512.58-230.47-513.57-515.29-513.57Zm-514.08-1521.23v740.92c482.48,0,935.88,188.67,1277.39,530.47,341.19,340.82,529.56,796.41,529.56,1280.75h744.06c0-1407.08-1144.87-2551.93-2551.02-2551.93v-.22Zm.93-1313.12v741.07c1720.49,0,3120.64,1401.6,3120.64,3124.01l743.06,.07c0-2130.67-1733.57-3865.07-3863.65-3865.07l-.05-.07Z" fill-rule="evenodd"/></g></svg>