<?xml version="1.0" encoding="UTF-8"?><svg xmlns="http://www.w3.org/2000/svg" width="3334" height="3334" viewBox="0 0 3334 3334"><g id="a" image-rendering="optimizeQuality" shape-rendering="geometricPrecision" text-rendering="geometricPrecision"><path id="b" d="M1667,0c920,0,1667,746,1667,1667s-746,1667-1667,1667S0,2588,0,1667,746,0,1667,0Zm361,744c31,262,177,418,430,434v294c-147,14-276-34-426-124v550c0,700-763,918-1069,417-197-322-76-889,556-911v311c-48,8-99,20-146,36-141,47-220,137-198,294,43,301,595,390,549-198V745h305l-1-1Z" fill-rule="evenodd"/></g></svg>