<?xml version="1.0" encoding="UTF-8"?><svg id="a" xmlns="http://www.w3.org/2000/svg" width="800" height="800" viewBox="0 0 800 800"><g id="b"><polygon points="210.14 429.52 241.85 429.52 241.85 601.17 271.85 601.17 271.85 429.52 304.16 429.52 304.16 401.41 210.14 401.41 210.14 429.52"/><path d="M463.83,450.5c-9.92,0-19.18,5.42-27.88,16.14v-65.24h-26.97v199.77h26.97v-14.42c9.03,11.14,18.28,16.47,27.88,16.47,10.73,0,17.95-5.65,21.55-16.73,1.81-6.31,2.73-16.22,2.73-29.99v-59.27c0-14.09-.92-23.93-2.73-29.91-3.59-11.16-10.83-16.81-21.55-16.81Zm-2.7,108.1c0,13.45-3.94,20.08-11.74,20.08-4.43,0-8.94-2.12-13.45-6.64v-90.71c4.51-4.46,9.02-6.57,13.45-6.57,7.78,0,11.74,6.89,11.74,20.31v63.53Z"/><path d="M358.66,566.07c-5.98,8.45-11.64,12.62-17.06,12.62-3.6,0-5.66-2.12-6.31-6.31-.25-.87-.25-4.16-.25-10.48v-109.59h-26.97v117.68c0,10.52,.91,17.62,2.38,22.14,2.71,7.55,8.7,11.08,17.37,11.08,9.93,0,20.11-5.99,30.83-18.28v16.24h26.99v-148.85h-26.99v113.75Z"/><path d="M381.81,314.81c8.78,0,13-6.96,13-20.88v-63.27c0-13.92-4.21-20.85-13-20.85s-13.01,6.94-13.01,20.85v63.27c0,13.92,4.22,20.88,13.01,20.88Z"/><path d="M400,0C179.09,0,0,179.09,0,400s179.09,400,400,400,400-179.09,400-400S620.91,0,400,0Zm44.49,187.09h27.18v110.75c0,6.39,0,9.71,.33,10.6,.6,4.22,2.74,6.38,6.39,6.38,5.45,0,11.17-4.22,17.22-12.76v-114.97h27.25v150.42h-27.25v-16.4c-10.85,12.44-21.2,18.47-31.14,18.47-8.77,0-14.83-3.56-17.56-11.17-1.51-4.56-2.41-11.75-2.41-22.37v-118.95h0Zm-102.94,49.05c0-16.08,2.73-27.83,8.53-35.44,7.54-10.29,18.15-15.43,31.74-15.43s24.26,5.14,31.8,15.43c5.71,7.59,8.45,19.36,8.45,35.44v52.67c0,15.99-2.73,27.85-8.45,35.37-7.54,10.26-18.14,15.39-31.8,15.39s-24.2-5.13-31.74-15.39c-5.79-7.52-8.53-19.39-8.53-35.37v-52.67Zm-72.89-100.48l21.46,79.26,20.62-79.26h30.57l-36.36,120.1v81.75h-30.22v-81.75c-2.74-14.49-8.79-35.71-18.49-63.86-6.37-18.73-13-37.52-19.37-56.24h31.8Zm346.67,478.65c-5.47,23.73-24.87,41.24-48.24,43.85-55.35,6.18-111.34,6.21-167.12,6.18-55.76,.03-111.78,0-167.11-6.18-23.37-2.61-42.78-20.12-48.23-43.85-7.78-33.79-7.78-70.69-7.78-105.49s.1-71.69,7.87-105.49c5.46-23.73,24.86-41.25,48.22-43.85,55.34-6.18,111.35-6.21,167.13-6.18,55.76-.03,111.77,0,167.11,6.18,23.37,2.61,42.78,20.12,48.25,43.85,7.76,33.8,7.71,70.69,7.71,105.49s-.03,71.7-7.82,105.49Z"/><path d="M549.73,450.5c-13.8,0-24.51,5.07-32.3,15.26-5.72,7.53-8.33,19.17-8.33,35.07v52.14c0,15.82,2.92,27.54,8.67,35,7.78,10.16,18.53,15.25,32.64,15.25s25.14-5.33,32.61-16.14c3.27-4.78,5.4-10.19,6.3-16.16,.25-2.7,.57-8.68,.57-17.38v-3.92h-27.51c0,10.8-.35,16.8-.59,18.27-1.54,7.21-5.42,10.81-12.06,10.81-9.26,0-13.8-6.87-13.8-20.64v-26.4h53.95v-30.83c0-15.9-2.69-27.54-8.35-35.07-7.54-10.16-18.27-15.24-31.8-15.24Zm13.19,58.7h-26.97v-13.77c0-13.77,4.53-20.65,13.54-20.65s13.44,6.89,13.44,20.65v13.77Z"/></g></svg>